<svg xmlns="http://www.w3.org/2000/svg" xmlns:xlink="http://www.w3.org/1999/xlink" width="1080" zoomAndPan="magnify" viewBox="0 0 810 809.999993" height="1080" preserveAspectRatio="xMidYMid meet" version="1.0"><defs><clipPath id="d79404c440"><path d="M 91.355469 91.355469 L 718.355469 91.355469 L 718.355469 718.355469 L 91.355469 718.355469 Z M 91.355469 91.355469 " clip-rule="nonzero"/></clipPath></defs><g clip-path="url(#d79404c440)"><path fill="#c4a15c" d="M 459.882812 191.796875 L 482.699219 169.058594 L 459.882812 146.242188 L 459.882812 114.09375 L 427.734375 114.09375 L 404.996094 91.355469 L 382.257812 114.09375 L 350.03125 114.09375 L 350.03125 146.242188 L 327.289062 169.058594 L 350.03125 191.796875 L 350.03125 223.945312 L 382.257812 223.945312 L 396.371094 238.136719 L 353.558594 280.949219 L 293.105469 280.949219 L 293.105469 260.878906 L 315.84375 238.136719 L 293.105469 215.398438 L 293.105469 183.171875 L 260.878906 183.171875 L 238.136719 160.433594 L 215.398438 183.171875 L 183.171875 183.171875 L 183.171875 215.398438 L 160.433594 238.136719 L 183.171875 260.878906 L 183.171875 293.105469 L 215.398438 293.105469 L 238.136719 315.84375 L 260.878906 293.105469 L 280.949219 293.105469 L 280.949219 353.558594 L 238.136719 396.371094 L 223.945312 382.179688 L 223.945312 350.03125 L 191.796875 350.03125 L 169.058594 327.289062 L 146.242188 350.03125 L 114.09375 350.03125 L 114.09375 382.179688 L 91.355469 404.996094 L 114.09375 427.734375 L 114.09375 459.882812 L 146.242188 459.882812 L 169.058594 482.699219 L 191.796875 459.882812 L 223.945312 459.882812 L 223.945312 427.734375 L 238.136719 413.542969 L 280.949219 456.355469 L 280.949219 516.886719 L 260.878906 516.886719 L 238.136719 494.148438 L 215.398438 516.886719 L 183.171875 516.886719 L 183.171875 549.035156 L 160.433594 571.773438 L 183.171875 594.589844 L 183.171875 626.738281 L 215.398438 626.738281 L 238.136719 649.476562 L 260.878906 626.738281 L 293.105469 626.738281 L 293.105469 594.589844 L 315.84375 571.773438 L 293.105469 549.035156 L 293.105469 529.039062 L 353.558594 529.039062 L 396.371094 571.773438 L 382.257812 585.964844 L 350.03125 585.964844 L 350.03125 618.191406 L 327.289062 640.929688 L 350.03125 663.671875 L 350.03125 695.820312 L 382.257812 695.820312 L 404.996094 718.636719 L 427.734375 695.820312 L 459.882812 695.820312 L 459.882812 663.671875 L 482.699219 640.929688 L 459.882812 618.191406 L 459.882812 585.964844 L 427.734375 585.964844 L 413.542969 571.773438 L 456.355469 529.039062 L 516.886719 529.039062 L 516.886719 549.035156 L 494.148438 571.773438 L 516.886719 594.589844 L 516.886719 626.738281 L 549.035156 626.738281 L 571.851562 649.476562 L 594.589844 626.738281 L 626.738281 626.738281 L 626.738281 594.589844 L 649.476562 571.773438 L 626.738281 549.035156 L 626.738281 516.886719 L 594.589844 516.886719 L 571.851562 494.148438 L 549.035156 516.886719 L 529.039062 516.886719 L 529.039062 456.355469 L 571.851562 413.542969 L 585.964844 427.734375 L 585.964844 459.882812 L 618.191406 459.882812 L 640.929688 482.699219 L 663.671875 459.882812 L 695.898438 459.882812 L 695.898438 427.734375 L 718.636719 404.996094 L 695.898438 382.179688 L 695.898438 350.03125 L 663.671875 350.03125 L 640.929688 327.289062 L 618.191406 350.03125 L 585.964844 350.03125 L 585.964844 382.179688 L 571.851562 396.371094 L 529.039062 353.558594 L 529.039062 293.105469 L 549.035156 293.105469 L 571.851562 315.84375 L 594.589844 293.105469 L 626.738281 293.105469 L 626.738281 260.878906 L 649.476562 238.136719 L 626.738281 215.398438 L 626.738281 183.171875 L 594.589844 183.171875 L 571.851562 160.433594 L 549.035156 183.171875 L 516.886719 183.171875 L 516.886719 215.398438 L 494.148438 238.136719 L 516.886719 260.878906 L 516.886719 280.949219 L 456.355469 280.949219 L 413.542969 238.136719 L 427.734375 223.945312 L 459.882812 223.945312 Z M 529.039062 280.949219 L 529.039062 255.859375 L 511.320312 238.136719 L 529.039062 220.417969 L 529.039062 195.328125 L 554.054688 195.328125 L 571.851562 177.605469 L 589.574219 195.328125 L 614.585938 195.328125 L 614.585938 220.417969 L 632.304688 238.136719 L 614.585938 255.859375 L 614.585938 280.949219 L 589.574219 280.949219 L 571.851562 298.671875 L 554.054688 280.949219 Z M 580.398438 404.996094 L 598.121094 387.273438 L 598.121094 362.183594 L 623.210938 362.183594 L 640.929688 344.460938 L 658.652344 362.183594 L 683.742188 362.183594 L 683.742188 387.273438 L 701.464844 404.996094 L 683.742188 422.714844 L 683.742188 447.730469 L 658.652344 447.730469 L 640.929688 465.449219 L 623.210938 447.730469 L 598.121094 447.730469 L 598.121094 422.714844 Z M 462.941406 293.105469 L 516.886719 293.105469 L 516.886719 347.050781 L 478.699219 331.210938 Z M 480.191406 344.933594 L 515.003906 359.359375 L 500.578125 394.253906 L 480.191406 373.789062 Z M 468.039062 378.886719 L 494.148438 404.996094 L 468.039062 431.105469 L 468.039062 468.039062 L 431.105469 468.039062 L 404.996094 494.148438 L 378.886719 468.039062 L 341.953125 468.039062 L 341.953125 431.105469 L 315.84375 404.996094 L 341.953125 378.886719 L 341.953125 341.953125 L 378.886719 341.953125 L 404.996094 315.84375 L 431.105469 341.953125 L 468.039062 341.953125 Z M 480.191406 436.125 L 500.578125 415.660156 L 515.003906 450.550781 L 480.191406 464.980469 Z M 525.042969 366.808594 L 563.226562 404.996094 L 525.042969 443.101562 L 509.28125 404.996094 Z M 447.808594 186.78125 L 447.808594 211.792969 L 422.714844 211.792969 L 404.996094 229.511719 L 387.273438 211.792969 L 362.183594 211.792969 L 362.183594 186.78125 L 344.460938 169.058594 L 362.183594 151.261719 L 362.183594 126.246094 L 387.273438 126.246094 L 404.996094 108.527344 L 422.714844 126.246094 L 447.808594 126.246094 L 447.808594 151.261719 L 465.527344 169.058594 Z M 404.996094 246.683594 L 443.101562 284.871094 L 404.996094 300.632812 L 366.808594 284.871094 Z M 280.949219 195.328125 L 280.949219 220.417969 L 298.671875 238.136719 L 280.949219 255.859375 L 280.949219 280.949219 L 255.859375 280.949219 L 238.136719 298.671875 L 220.417969 280.949219 L 195.328125 280.949219 L 195.328125 255.859375 L 177.605469 238.136719 L 195.328125 220.417969 L 195.328125 195.328125 L 220.417969 195.328125 L 238.136719 177.605469 L 255.859375 195.328125 Z M 359.359375 294.90625 L 394.253906 309.335938 L 373.867188 329.800781 L 344.933594 329.800781 Z M 329.800781 344.933594 L 329.800781 373.789062 L 309.414062 394.253906 L 294.90625 359.359375 Z M 300.632812 404.996094 L 284.871094 443.101562 L 246.683594 404.996094 L 284.871094 366.808594 Z M 293.105469 293.105469 L 347.050781 293.105469 L 331.210938 331.210938 L 293.105469 347.050781 Z M 211.792969 362.183594 L 211.792969 387.273438 L 229.511719 404.996094 L 211.792969 422.714844 L 211.792969 447.730469 L 186.78125 447.730469 L 169.058594 465.449219 L 151.339844 447.730469 L 126.246094 447.730469 L 126.246094 422.714844 L 108.527344 404.996094 L 126.246094 387.273438 L 126.246094 362.183594 L 151.339844 362.183594 L 169.058594 344.460938 L 186.78125 362.183594 Z M 195.328125 529.039062 L 220.417969 529.039062 L 238.136719 511.320312 L 255.859375 529.039062 L 280.949219 529.039062 L 280.949219 554.054688 L 298.671875 571.773438 L 280.949219 589.496094 L 280.949219 614.585938 L 255.859375 614.585938 L 238.136719 632.304688 L 220.417969 614.585938 L 195.328125 614.585938 L 195.328125 589.496094 L 177.605469 571.773438 L 195.328125 554.054688 Z M 450.550781 294.90625 L 464.980469 329.800781 L 436.125 329.800781 L 415.660156 309.335938 Z M 415.660156 500.578125 L 436.125 480.113281 L 464.980469 480.113281 L 450.550781 515.003906 Z M 373.867188 480.113281 L 394.253906 500.578125 L 359.359375 515.003906 L 344.933594 480.113281 Z M 366.808594 525.042969 L 404.996094 509.28125 L 443.101562 525.042969 L 404.996094 563.226562 Z M 362.183594 598.121094 L 387.273438 598.121094 L 404.996094 580.398438 L 422.714844 598.121094 L 447.808594 598.121094 L 447.808594 623.210938 L 465.527344 640.929688 L 447.808594 658.652344 L 447.808594 683.742188 L 422.714844 683.742188 L 404.996094 701.464844 L 387.273438 683.742188 L 362.183594 683.742188 L 362.183594 658.652344 L 344.460938 640.929688 L 362.183594 623.210938 Z M 478.699219 478.699219 L 516.886719 462.941406 L 516.886719 516.886719 L 462.941406 516.886719 Z M 511.320312 571.773438 L 529.039062 554.054688 L 529.039062 529.039062 L 554.054688 529.039062 L 571.851562 511.320312 L 589.574219 529.039062 L 614.585938 529.039062 L 614.585938 554.054688 L 632.304688 571.773438 L 614.585938 589.496094 L 614.585938 614.585938 L 589.574219 614.585938 L 571.851562 632.304688 L 554.054688 614.585938 L 529.039062 614.585938 L 529.039062 589.496094 Z M 329.800781 436.125 L 329.800781 464.980469 L 294.90625 450.550781 L 309.414062 415.660156 Z M 331.210938 478.699219 L 347.050781 516.886719 L 293.105469 516.886719 L 293.105469 462.941406 Z M 331.210938 478.699219 " fill-opacity="1" fill-rule="evenodd"/></g></svg>